<?xml version="1.0" standalone="no"?>
<!DOCTYPE svg PUBLIC "-//W3C//DTD SVG 20010904//EN"
 "http://www.w3.org/TR/2001/REC-SVG-20010904/DTD/svg10.dtd">
<svg version="1.0" xmlns="http://www.w3.org/2000/svg"
 width="215.000000pt" height="215.000000pt" viewBox="0 0 215.000000 215.000000"
 preserveAspectRatio="xMidYMid meet">
<metadata>
Created by potrace 1.11, written by Peter Selinger 2001-2013
</metadata>
<g transform="translate(0.000000,215.000000) scale(0.100000,-0.100000)"
fill="#000000" stroke="none">
<path d="M116 2130 c-21 -11 -49 -32 -63 -47 -55 -63 -53 -21 -53 -1002 0
-572 4 -919 10 -942 13 -47 81 -116 128 -129 24 -6 352 -10 943 -10 1004 0
947 -4 1014 66 19 19 39 52 45 72 6 24 10 354 10 943 0 1002 3 947 -64 1013
-19 18 -52 38 -74 44 -30 9 -269 12 -948 12 -874 -1 -910 -2 -948 -20z"/>
</g>
</svg>
