<?xml version="1.0" encoding="UTF-8" standalone="no"?>
<svg
   xmlns:dc="http://purl.org/dc/elements/1.1/"
   xmlns:cc="http://creativecommons.org/ns#"
   xmlns:rdf="http://www.w3.org/1999/02/22-rdf-syntax-ns#"
   xmlns:svg="http://www.w3.org/2000/svg"
   xmlns="http://www.w3.org/2000/svg"
   xmlns:sodipodi="http://sodipodi.sourceforge.net/DTD/sodipodi-0.dtd"
   xmlns:inkscape="http://www.inkscape.org/namespaces/inkscape"
   preserveAspectRatio="xMidYMid meet"
   class="dicon   "
   viewBox="0 0 135.63699 135.63699"
   version="1.1"
   id="svg12"
   sodipodi:docname="docker.svg"
   width="135.63699"
   height="135.63699"
   inkscape:version="0.92.3 (2405546, 2018-03-11)">
  <metadata
     id="metadata18">
    <rdf:RDF>
      <cc:Work
         rdf:about="">
        <dc:format>image/svg+xml</dc:format>
        <dc:type
           rdf:resource="http://purl.org/dc/dcmitype/StillImage" />
        <dc:title></dc:title>
      </cc:Work>
    </rdf:RDF>
  </metadata>
  <defs
     id="defs16" />
  <sodipodi:namedview
     pagecolor="#ffffff"
     bordercolor="#666666"
     borderopacity="1"
     objecttolerance="10"
     gridtolerance="10"
     guidetolerance="10"
     inkscape:pageopacity="0"
     inkscape:pageshadow="2"
     inkscape:window-width="1329"
     inkscape:window-height="744"
     id="namedview14"
     showgrid="false"
     fit-margin-top="0"
     fit-margin-left="0"
     fit-margin-right="0"
     fit-margin-bottom="0"
     inkscape:zoom="2.9923939"
     inkscape:cx="42.988879"
     inkscape:cy="85.708909"
     inkscape:window-x="37"
     inkscape:window-y="24"
     inkscape:window-maximized="1"
     inkscape:current-layer="g10" />
  <g
     id="g10"
     transform="translate(-21.018785,88.369881)">
    <rect
       style="opacity:1;vector-effect:none;fill:#099cec;fill-opacity:1;stroke:none;stroke-width:2.41955161px;stroke-linecap:butt;stroke-linejoin:miter;stroke-miterlimit:4;stroke-dasharray:none;stroke-dashoffset:0;stroke-opacity:1"
       id="rect857"
       width="135.63699"
       height="135.63699"
       x="21.018785"
       y="-88.369881"
       ry="9.8041964" />
    <g
       id="g8"
       style="fill:#ffffff;fill-rule:evenodd">
      <path
         d="m 63.12,14.601 c 0.292,-0.29 0.633,-0.519 1.023,-0.687 0.389,-0.168 0.806,-0.252 1.25,-0.252 0.402,0 0.773,0.067 1.114,0.202 0.341,0.134 0.667,0.333 0.977,0.595 0.183,0.147 0.39,0.22 0.62,0.22 0.275,0 0.501,-0.091 0.68,-0.275 0.179612,-0.182799 0.27709,-0.430825 0.27,-0.687 0.004,-0.278357 -0.116709,-0.543914 -0.329,-0.724 -0.937,-0.83 -2.048,-1.245 -3.332,-1.245 -1.412,0 -2.617,0.5 -3.615,1.502 -0.998,1.002 -1.497,2.211 -1.497,3.628 0,1.417 0.499,2.626 1.497,3.628 0.998,1.001 2.203,1.502 3.615,1.502 1.278,0 2.39,-0.415 3.332,-1.245 0.193694,-0.183634 0.302971,-0.439096 0.302,-0.706 0.01943,-0.532978 -0.416963,-0.970745 -0.95,-0.953 -0.217036,0.0016 -0.427905,0.07239 -0.602,0.202 -0.305,0.263 -0.627,0.46 -0.968,0.591 -0.34,0.131 -0.712,0.197 -1.114,0.197 -0.444,0 -0.861,-0.084 -1.25,-0.252 -1.193625,-0.499997 -1.968425,-1.669895 -1.963,-2.964 -0.0037,-0.854158 0.334805,-1.674225 0.94,-2.277 z m 15.771,-2.267 c -0.04976,-0.113586 -0.119155,-0.21751 -0.205,-0.307 -0.08509,-0.08864 -0.187563,-0.158773 -0.301,-0.206 -0.118465,-0.04932 -0.245685,-0.07415 -0.374,-0.073 -0.181279,-0.0025 -0.359305,0.04826 -0.512,0.146 l -5.46,3.564 V 8.312 C 72.0444,8.0557522 71.94382,7.8086319 71.761,7.629 71.585813,7.4474149 71.343291,7.3464242 71.091,7.35 70.835356,7.34523 70.589163,7.446602 70.411,7.63 70.227596,7.8089837 70.126273,8.055778 70.131,8.312 v 12.735 c 0,0.262 0.093,0.488 0.28,0.678 0.185,0.189 0.412,0.283 0.68,0.283 0.253057,0.0034 0.495995,-0.09923 0.67,-0.283 0.181423,-0.178593 0.28218,-0.423442 0.279,-0.678 v -3.308 l 1.114,-0.733 4.218,4.755 c 0.170892,0.165267 0.40138,0.25436 0.639,0.247 0.128315,0.0011 0.255535,-0.02368 0.374,-0.073 0.113315,-0.04745 0.215742,-0.117552 0.301,-0.206 0.085,-0.088 0.154,-0.19 0.205,-0.307 0.05193,-0.115353 0.07853,-0.240498 0.078,-0.367 4.5e-4,-0.248383 -0.0944,-0.487475 -0.265,-0.668 l -3.925,-4.434 3.825,-2.492 c 0.244,-0.165 0.365,-0.418 0.365,-0.76 4.67e-4,-0.126496 -0.02613,-0.251628 -0.078,-0.367 z m -21.838,5.785 c -0.325653,0.76999 -0.935091,1.385156 -1.702,1.718 -0.394464,0.17213 -0.820624,0.259679 -1.251,0.257 -0.45,0 -0.87,-0.086 -1.26,-0.257 -0.378752,-0.163428 -0.722633,-0.398001 -1.013,-0.691 -0.288888,-0.294898 -0.519584,-0.641621 -0.68,-1.022 -0.1684,-0.393706 -0.254171,-0.817796 -0.252,-1.246 0,-0.44 0.084,-0.855 0.251,-1.246 0.168,-0.39 0.395,-0.731 0.68,-1.022 0.286,-0.29 0.624,-0.52 1.014,-0.691 0.39,-0.171 0.81,-0.257 1.26,-0.257 0.444,0 0.86,0.086 1.25,0.257 0.766983,0.332568 1.376723,0.94732 1.703,1.717 0.168,0.388 0.251,0.802 0.251,1.242 0,0.44 -0.083,0.854 -0.251,1.241 z M 57.715,13.25 C 56.705,12.248 55.5,11.748 54.1,11.748 c -1.412,0 -2.617,0.5 -3.615,1.502 -0.998,1.002 -1.498,2.211 -1.498,3.628 0,1.417 0.5,2.626 1.498,3.628 0.998,1.001 2.203,1.502 3.615,1.502 1.4,0 2.605,-0.5 3.615,-1.502 0.998,-0.99 1.497,-2.199 1.497,-3.628 2.31e-4,-0.674806 -0.128407,-1.343449 -0.379,-1.97 -0.257969,-0.621909 -0.638144,-1.185711 -1.118,-1.658 z m 41.03,-0.861 c -0.18472,-0.174015 -0.404203,-0.306932 -0.644,-0.39 -0.274767,-0.0983 -0.560005,-0.164408 -0.85,-0.197 -0.286009,-0.03507 -0.57385,-0.0531 -0.862,-0.054 -0.584783,-0.0041 -1.165693,0.09514 -1.716,0.293 -0.539149,0.197113 -1.042199,0.481578 -1.489,0.842 V 12.7 c 0.0038,-0.253019 -0.09672,-0.496445 -0.278,-0.673 -0.175254,-0.182209 -0.418214,-0.283593 -0.671,-0.28 -0.255667,-0.0049 -0.501906,0.0965 -0.68,0.28 -0.181646,0.176384 -0.28257,0.419832 -0.279,0.673 v 8.355 c -0.0038,0.253513 0.0971,0.497376 0.279,0.674 0.185,0.186 0.412,0.28 0.68,0.28 0.252763,0.0035 0.495677,-0.09789 0.671,-0.28 0.181533,-0.176794 0.282108,-0.420635 0.278,-0.674 v -4.177 c -6.1e-4,-0.85276 0.335826,-1.671203 0.936,-2.277 0.29,-0.29 0.629,-0.519 1.018,-0.687 0.39,-0.168 0.807,-0.252 1.25,-0.252 0.451,0 0.868,0.077 1.252,0.23 0.152,0.067 0.286,0.1 0.401,0.1 0.128654,0.0013 0.256233,-0.02352 0.375,-0.073 0.113209,-0.04757 0.215351,-0.118043 0.3,-0.207 0.086,-0.088 0.154,-0.19 0.206,-0.306 0.05236,-0.118386 0.07895,-0.246554 0.078,-0.376 0.0088,-0.240191 -0.08417,-0.472943 -0.256,-0.641 z m -16.708,3.536 c 0.097,-0.336 0.247,-0.643 0.448,-0.92 0.2,-0.278 0.438,-0.516 0.711,-0.715 0.274,-0.199 0.576,-0.353 0.904,-0.463 0.656295,-0.220578 1.366705,-0.220578 2.023,0 0.644391,0.216384 1.205606,0.627685 1.606,1.177 0.204,0.278 0.358,0.585 0.461,0.921 z m 6.692,-2.675 c -1.01,-1.002 -2.216,-1.502 -3.615,-1.502 -1.412,0 -2.618,0.5 -3.616,1.502 -0.998,1.002 -1.497,2.211 -1.497,3.628 0,1.417 0.5,2.626 1.497,3.628 0.998,1.001 2.204,1.502 3.616,1.502 1.284,0 2.398,-0.415 3.341,-1.245 0.18025,-0.183082 0.279036,-0.431127 0.274,-0.688 0.0076,-0.254786 -0.09006,-0.501456 -0.27,-0.682 -0.179459,-0.18034 -0.425712,-0.278117 -0.68,-0.27 -0.23128,0.0037 -0.454048,0.08785 -0.63,0.238 -0.274302,0.237909 -0.589373,0.424241 -0.93,0.55 -0.354721,0.125448 -0.728776,0.187395 -1.105,0.183 -0.353,0 -0.693,-0.055 -1.018,-0.165 -0.320401,-0.107312 -0.622296,-0.263488 -0.895,-0.463 -0.553446,-0.405923 -0.961565,-0.979182 -1.164,-1.635 h 7.23 c 0.531693,0.0108 0.966464,-0.42125 0.959,-0.953 0,-0.708 -0.125,-1.367 -0.374,-1.974 -0.25895,-0.62143 -0.640946,-1.184049 -1.123,-1.654 z m -42.988,4.87 c -0.325019,0.770758 -0.935121,1.386235 -1.703,1.718 -0.389,0.17 -0.806,0.256 -1.25,0.256 -0.45,0 -0.87,-0.086 -1.26,-0.257 -0.378728,-0.163471 -0.722602,-0.398039 -1.013,-0.691 -0.289113,-0.294716 -0.519839,-0.641484 -0.68,-1.022 -0.167894,-0.39383 -0.253317,-0.817882 -0.251,-1.246 0,-0.44 0.083,-0.855 0.25,-1.246 0.168,-0.39 0.395,-0.731 0.68,-1.022 0.287,-0.29 0.624,-0.52 1.014,-0.691 0.39,-0.171 0.81,-0.257 1.26,-0.257 0.444,0 0.861,0.086 1.25,0.257 0.767634,0.331614 1.377681,0.946677 1.703,1.717 0.168,0.388 0.251,0.802 0.251,1.242 0.0029,0.426459 -0.08219,0.848933 -0.25,1.241 z m 1.2,-10.77 C 46.408851,7.334101 45.973862,7.770923 45.992,8.303 v 4.571 c -0.925,-0.751 -1.993,-1.126 -3.204,-1.126 -1.412,0 -2.617,0.5 -3.615,1.502 -0.999,1.002 -1.497,2.211 -1.497,3.628 0,1.417 0.498,2.626 1.497,3.628 0.998,1.001 2.203,1.502 3.615,1.502 1.4,0 2.605,-0.5 3.615,-1.502 0.999,-0.99 1.498,-2.199 1.498,-3.628 V 8.303 C 47.908464,7.77125 47.473693,7.3391984 46.942,7.35 Z"
         id="path2"
         inkscape:connector-curvature="0"
         sodipodi:nodetypes="ccsccscccssscscccccsccccccccccccccsccccccccccccccccccccccccccssccsccssscscccccccccccccccccccccccscccccccccccccccccssscsccccccccccccccccsccccccssccccccccscscscsccc" />
      <g
         id="Page-1"
         font-size="18"
         font-weight="bold"
         style="font-weight:bold;font-size:18px;font-family:Comfortaa;opacity:0.5;fill:none;fill-rule:evenodd;stroke:none;stroke-width:1">
        <text
           id="hub"
           style="fill:#ffffff">
          <tspan
             x="101"
             y="22"
             id="tspan4">hub</tspan>
        </text>
      </g>
    </g>
    <g
       id="g853"
       transform="matrix(2.3181523,0,0,2.3181523,2.9242424,2.5770239)"
       style="fill:#ffffff;fill-rule:evenodd">
      <path
         id="path845"
         d="m 39.857712,-15.924959 h 3.74 v -3.378 h -3.74 z m -4.419,0 h 3.74 v -3.378 h -3.74 z m -4.418,0 h 3.739 v -3.378 h -3.74 v 3.378 z m -4.42,0 h 3.74 v -3.378 h -3.74 z m -4.418,0 h 3.739 v -3.378 h -3.739 z m 4.419,-4.054 h 3.739 v -3.378 h -3.74 v 3.378 z m 4.419,0 h 3.739 v -3.378 h -3.74 v 3.378 z m 4.418,0 h 3.74 v -3.378 h -3.74 z m 0,-4.054 h 3.74 v -3.378 h -3.74 z m 15.258,5.668 c -0.186,-1.352 -0.944,-2.524 -2.323,-3.584 l -0.792,-0.525 -0.53,0.789 c -0.675,1.014 -1.015,2.42 -0.903,3.769 0.05,0.474 0.207,1.323 0.698,2.069 -0.49,0.262 -1.456,0.623 -2.739,0.598 h -24.591 l -0.049,0.282 c -0.23,1.355 -0.226,5.5830001 2.537,8.8330001 2.099,2.47 5.247,3.723 9.356,3.723 8.906,0 15.495,-4.075 18.58,-11.4820001 1.213,0.024 3.827,0.007 5.17,-2.541 0.034,-0.058 0.115,-0.212 0.349,-0.695 l 0.129,-0.264 -0.755,-0.501 c -0.817,-0.543 -2.693,-0.742 -4.137,-0.471 z"
         inkscape:connector-curvature="0"
         sodipodi:nodetypes="ccccccccccccccccccccccccccccccccccccccccccccccccccccccccccscccccc" />
      <g
         font-weight="bold"
         font-size="18"
         id="g851"
         style="font-weight:bold;font-size:18px;font-family:Comfortaa;opacity:0.5;fill:none;fill-rule:evenodd;stroke:none;stroke-width:1"
         transform="translate(22.684932,3.3082192)" />
    </g>
  </g>
</svg>
