<?xml version="1.0" encoding="UTF-8" standalone="no"?>
<!-- Generator: Adobe Illustrator 19.2.0, SVG Export Plug-In . SVG Version: 6.00 Build 0)  -->

<svg
   xmlns:dc="http://purl.org/dc/elements/1.1/"
   xmlns:cc="http://creativecommons.org/ns#"
   xmlns:rdf="http://www.w3.org/1999/02/22-rdf-syntax-ns#"
   xmlns:svg="http://www.w3.org/2000/svg"
   xmlns="http://www.w3.org/2000/svg"
   xmlns:sodipodi="http://sodipodi.sourceforge.net/DTD/sodipodi-0.dtd"
   xmlns:inkscape="http://www.inkscape.org/namespaces/inkscape"
   version="1.1"
   id="Calque_1"
   x="0px"
   y="0px"
   viewBox="0 0 45 45"
   style="enable-background:new 0 0 45 45;"
   xml:space="preserve"
   sodipodi:docname="vcard.svg"
   inkscape:version="0.92.3 (2405546, 2018-03-11)"><metadata
   id="metadata900"><rdf:RDF><cc:Work
       rdf:about=""><dc:format>image/svg+xml</dc:format><dc:type
         rdf:resource="http://purl.org/dc/dcmitype/StillImage" /></cc:Work></rdf:RDF></metadata><defs
   id="defs898" /><sodipodi:namedview
   pagecolor="#ffffff"
   bordercolor="#666666"
   borderopacity="1"
   objecttolerance="10"
   gridtolerance="10"
   guidetolerance="10"
   inkscape:pageopacity="0"
   inkscape:pageshadow="2"
   inkscape:window-width="1329"
   inkscape:window-height="744"
   id="namedview896"
   showgrid="false"
   inkscape:zoom="13.022222"
   inkscape:cx="21.007876"
   inkscape:cy="18.296024"
   inkscape:window-x="37"
   inkscape:window-y="24"
   inkscape:window-maximized="1"
   inkscape:current-layer="g893" />
<style
   type="text/css"
   id="style875">
	.st0{fill-rule:evenodd;clip-rule:evenodd;}
</style>
<g
   id="g893">
	<path
   id="path904"
   d="m 0.17400001,39.106946 c 0.49833447,38.748953 0.24916724,19.374477 0,0 z m 43.14800199,0 c 0,0.675 -0.555,1.225 -1.235,1.225 h -6.316 v 0 -1.149 h 0.781 c 1.683,0 3.052,-1.364 3.052,-3.041 v -0.192 c 0,-1.676 -1.369,-3.04 -3.052,-3.04 h -6.82 c -1.683,0 -3.052,1.363 -3.052,3.04 v 0.192 c 0,1.677 1.369,3.041 3.052,3.041 h 0.781 v 1.149 h -16.025 v -1.149 h 0.781 c 1.683,0 3.053,-1.364 3.053,-3.041 v -0.192 c 0,-1.676 -1.37,-3.04 -3.053,-3.04 H 8.4489999 c -1.683,0 -3.052,1.363 -3.052,3.04 v 0.192 c 0,1.677 1.369,3.041 3.052,3.041 h 0.781 v 1.149 h -6.315 c -0.682,0 -1.236,-0.549 -1.236,-1.225 V 5.9159454 c 0,-0.675 0.555,-1.224 1.236,-1.224 H 42.087002 c 0.682,0 1.235,0.549 1.235,1.224 z"
   class="st0"
   inkscape:connector-curvature="0"
   style="clip-rule:evenodd;fill:#5fc28c;fill-opacity:1;fill-rule:evenodd"
   sodipodi:nodetypes="ccsscccssssssssccccssssssssccsssssss" /><rect
   style="opacity:1;vector-effect:none;fill:#45a36f;fill-opacity:1;stroke:none;stroke-width:1.42312574px;stroke-linecap:butt;stroke-linejoin:miter;stroke-miterlimit:4;stroke-dasharray:none;stroke-dashoffset:0;stroke-opacity:1"
   id="rect906"
   width="13.961375"
   height="14.474002"
   x="6.8922081"
   y="9.783"
   ry="0" /><path
   class="st0"
   d="M42.086,3.175H2.915c-1.511,0-2.741,1.224-2.741,2.73v33.19c0,1.506,1.23,2.731,2.741,2.731h7.068   c0.416,0,0.752-0.337,0.752-0.753v-2.655c0-0.415-0.337-0.752-0.752-0.752H8.449c-0.853,0-1.547-0.688-1.547-1.535v-0.192   c0-0.846,0.694-1.535,1.547-1.535h6.82c0.853,0,1.547,0.688,1.547,1.535v0.192c0,0.847-0.694,1.535-1.547,1.535h-1.534   c-0.416,0-0.752,0.337-0.752,0.752v2.655c0,0.415,0.337,0.753,0.752,0.753h17.529c0.416,0,0.753-0.337,0.753-0.753v-2.655   c0-0.415-0.337-0.752-0.753-0.752h-1.533c-0.853,0-1.547-0.688-1.547-1.535v-0.192c0-0.846,0.694-1.535,1.547-1.535h6.821   c0.852,0,1.547,0.688,1.547,1.535v0.192c0,0.847-0.695,1.535-1.547,1.535h-1.534c-0.416,0-0.753,0.337-0.753,0.752v2.655   c0,0.415,0.337,0.753,0.753,0.753h7.067c1.512,0,2.741-1.224,2.741-2.731V5.904C44.826,4.399,43.597,3.175,42.086,3.175z    M43.322,39.095c0,0.675-0.555,1.225-1.235,1.225h-6.316h0v-1.149h0.781c1.683,0,3.052-1.364,3.052-3.041v-0.192   c0-1.676-1.369-3.04-3.052-3.04h-6.82c-1.683,0-3.052,1.363-3.052,3.04v0.192c0,1.677,1.369,3.041,3.052,3.041h0.781v1.149H14.488   v-1.149h0.781c1.683,0,3.053-1.364,3.053-3.041v-0.192c0-1.676-1.37-3.04-3.053-3.04h-6.82c-1.683,0-3.052,1.363-3.052,3.04v0.192   c0,1.677,1.369,3.041,3.052,3.041H9.23v1.149H2.915c-0.682,0-1.236-0.549-1.236-1.225V5.904c0-0.675,0.555-1.224,1.236-1.224   h39.172c0.682,0,1.235,0.549,1.235,1.224V39.095z"
   id="path877" />
	<rect
   x="27.412"
   y="21.061"
   class="st0"
   width="11.373"
   height="1.506"
   id="rect879" />
	<rect
   x="27.412"
   y="24.257"
   class="st0"
   width="6.042"
   height="1.506"
   id="rect881" />
	<rect
   x="27.412"
   y="8.277"
   class="st0"
   width="11.373"
   height="1.506"
   id="rect883" />
	<rect
   x="27.412"
   y="11.473"
   class="st0"
   width="11.373"
   height="1.506"
   id="rect885" />
	<rect
   x="27.412"
   y="14.669"
   class="st0"
   width="11.373"
   height="1.506"
   id="rect887" />
	<rect
   x="27.412"
   y="17.865"
   class="st0"
   width="11.373"
   height="1.506"
   id="rect889" />
	<path
   class="st0"
   d="M5.464,25.763h16.891V8.277H5.464V25.763z M8.652,24.257c0.489-1.807,2.66-3.174,5.257-3.174   c2.597,0,4.769,1.366,5.258,3.174H8.652z M11.383,15.94c0-1.394,1.134-2.527,2.527-2.527c1.393,0,2.526,1.133,2.526,2.527   s-1.133,2.528-2.526,2.528C12.517,18.467,11.383,17.334,11.383,15.94z M6.969,9.783h13.88v14.474H20.7   c-0.407-2.261-2.562-4.08-5.346-4.555c1.51-0.583,2.587-2.047,2.587-3.761c0-2.223-1.808-4.033-4.031-4.033   c-2.223,0-4.032,1.809-4.032,4.033c0,1.714,1.076,3.178,2.587,3.761c-2.784,0.475-4.939,2.294-5.346,4.556h-0.15V9.783z"
   id="path891" />
<path
   id="path908"
   d="m 8.652,24.257 c 0.489,-1.807 2.66,-3.174 5.257,-3.174 2.597,0 4.769,1.366 5.258,3.174 z m 2.731,-8.317 c 0,-1.394 1.134,-2.527 2.527,-2.527 1.393,0 2.526,1.133 2.526,2.527 0,1.394 -1.133,2.528 -2.526,2.528 -1.393,-0.001 -2.527,-1.134 -2.527,-2.528 z m 1.082,3.762 c 6.792389,15.943831 3.396195,7.971916 0,0 z"
   class="st0"
   inkscape:connector-curvature="0"
   style="clip-rule:evenodd;fill-rule:evenodd;fill:#fbfdfc;fill-opacity:1"
   sodipodi:nodetypes="csccssscscc" /></g>
</svg>